# xmcd
# 
# Track frame offsets:
#     150
#     14152
#     27510
#     40817
#     54532
#     67740
#     82900
#     98255
#     113662
#     127105
#     140165
#     154440
#     167175
#     180525
#     193040
#     208250
#     223090
#     237582
#     252152
#     266827
#     281442
#     294645
#     311032
#     322710
#     337842
# 
# Disc length: 4709
# 
# Revision: 1
# Processed by: cddbd v1.5.2PL0 Copyright (c) Steve Scherf et al.
# Submitted via: fre:ac v1.0.31
# 
DISCID=78126319
DTITLE=Casey Bill Weldon - Vol 1 1935 - 1936
DYEAR=0
DGENRE=blues
TTITLE0=Track01As The Clock Struck Four
TTITLE1=Doctor's Blues
TTITLE2=Race Horse Filly Blues
TTITLE3=What's The Matter With My Milk Cow?
TTITLE4=My Stove Won't Work
TTITLE5=Somebody's Changed The Lock On My Door (96221)
TTITLE6=Long-Eared Mule
TTITLE7=Somebody's Been Talking To You
TTITLE8=Howlin' Dog Blues
TTITLE9=Your Wagon's Worn Out Now
TTITLE10=Please Come On Down To My Home
TTITLE11=Brown Skin Mama
TTITLE12=Street Walkin' Blues
TTITLE13=Arlena
TTITLE14=Somebody's Changed The Lock On My Door (C-1255)
TTITLE15=W.P.A. Blues
TTITLE16=Flood Water Blues - No. 1
TTITLE17=Flood Water Blues - No. 2 (take 1)
TTITLE18=Flood Water Blues - No. 2 (take 2)
TTITLE19=Let Me Be Your Butcher
TTITLE20=I Got A Letter This Morning
TTITLE21=I'm A Stranger In Your Town
TTITLE22=Has My Gal Been Here
TTITLE23=Blues Everyhere I Go
TTITLE24=Somebody's Got To Go
EXTD=Document DOCD-5217
EXTT0=
EXTT1=
EXTT2=
EXTT3=
EXTT4=
EXTT5=
EXTT6=
EXTT7=
EXTT8=
EXTT9=
EXTT10=
EXTT11=
EXTT12=
EXTT13=
EXTT14=
EXTT15=
EXTT16=
EXTT17=
EXTT18=
EXTT19=
EXTT20=
EXTT21=
EXTT22=
EXTT23=
EXTT24=
PLAYORDER=
